<svg xmlns="http://www.w3.org/2000/svg" xmlns:xlink="http://www.w3.org/1999/xlink" width="500" zoomAndPan="magnify" viewBox="0 0 375 374.999991" height="500" preserveAspectRatio="xMidYMid meet" version="1.0"><defs><filter x="0%" y="0%" width="100%" height="100%" id="806f970b17"><feColorMatrix values="0 0 0 0 1 0 0 0 0 1 0 0 0 0 1 0 0 0 1 0" color-interpolation-filters="sRGB"/></filter><mask id="8aa848a96a"><g filter="url(#806f970b17)"><rect x="-37.5" width="450" fill="#000000" y="-37.499999" height="449.999989" fill-opacity="0.3373"/></g></mask><clipPath id="5772ffec38"><path d="M 1.46875 1.027344 L 279.390625 1.027344 L 279.390625 358.027344 L 1.46875 358.027344 Z M 1.46875 1.027344 " clip-rule="nonzero"/></clipPath><clipPath id="4ccc1dc5f0"><rect x="0" width="280" y="0" height="359"/></clipPath><mask id="b6b5c2868e"><g filter="url(#806f970b17)"><rect x="-37.5" width="450" fill="#000000" y="-37.499999" height="449.999989" fill-opacity="0.3373"/></g></mask><clipPath id="0c96c4beab"><path d="M 1.789062 0.707031 L 263.230469 0.707031 L 263.230469 335.957031 L 1.789062 335.957031 Z M 1.789062 0.707031 " clip-rule="nonzero"/></clipPath><clipPath id="821d0942c3"><rect x="0" width="264" y="0" height="336"/></clipPath></defs><g mask="url(#8aa848a96a)"><g transform="matrix(1, 0, 0, 1, 47, 8)"><g clip-path="url(#4ccc1dc5f0)"><g clip-path="url(#5772ffec38)"><path fill="#004aad" d="M 255.785156 34.261719 C 242.742188 34.261719 232.167969 44.839844 232.167969 57.890625 L 232.167969 160.859375 L 227.105469 160.859375 L 227.105469 35.363281 C 227.105469 22.3125 216.535156 11.734375 203.496094 11.734375 C 190.453125 11.734375 179.878906 22.3125 179.878906 35.363281 L 179.878906 160.859375 L 174.816406 160.859375 L 174.816406 24.65625 C 174.816406 11.605469 164.242188 1.027344 151.210938 1.027344 C 138.167969 1.027344 127.597656 11.605469 127.597656 24.65625 L 127.597656 160.859375 L 122.535156 160.859375 L 122.535156 42.664062 C 122.535156 29.613281 111.960938 19.03125 98.921875 19.03125 C 85.882812 19.03125 75.3125 29.613281 75.3125 42.664062 L 75.3125 181.972656 C 60.910156 162.730469 36.464844 130.15625 31.1875 123.699219 C 23.597656 114.414062 4.203125 114.414062 1.671875 132.980469 C -0.855469 151.546875 21.066406 206.402344 30.34375 247.757812 C 39.621094 289.109375 75.039062 358.027344 167.515625 358.027344 C 260 358.027344 279.394531 266.320312 279.394531 246.066406 C 279.394531 225.8125 279.394531 172.667969 279.394531 172.667969 L 279.394531 57.890625 C 279.394531 44.839844 268.824219 34.261719 255.785156 34.261719 " fill-opacity="1" fill-rule="nonzero"/></g></g></g></g><g mask="url(#b6b5c2868e)"><g transform="matrix(1, 0, 0, 1, 55, 19)"><g clip-path="url(#821d0942c3)"><g clip-path="url(#0c96c4beab)"><path fill="#ffffff" d="M 241.019531 31.914062 C 228.753906 31.914062 218.808594 41.847656 218.808594 54.105469 L 218.808594 150.800781 L 214.042969 150.800781 L 214.042969 32.949219 C 214.042969 20.691406 204.097656 10.757812 191.832031 10.757812 C 179.566406 10.757812 169.617188 20.695312 169.617188 32.949219 L 169.617188 150.800781 L 164.855469 150.800781 L 164.855469 22.894531 C 164.855469 10.640625 154.90625 0.707031 142.648438 0.707031 C 130.378906 0.707031 120.433594 10.640625 120.433594 22.894531 L 120.433594 150.800781 L 115.675781 150.800781 L 115.675781 39.804688 C 115.675781 27.546875 105.726562 17.613281 93.460938 17.613281 C 81.195312 17.613281 71.25 27.546875 71.25 39.804688 L 71.25 170.628906 C 57.703125 152.554688 34.707031 121.964844 29.742188 115.902344 C 22.605469 107.183594 4.355469 107.183594 1.976562 124.621094 C -0.402344 142.054688 20.222656 193.566406 28.949219 232.402344 C 37.675781 271.234375 70.992188 335.957031 157.988281 335.957031 C 244.988281 335.957031 263.230469 249.835938 263.230469 230.816406 C 263.230469 211.792969 263.230469 161.886719 263.230469 161.886719 L 263.230469 54.105469 C 263.230469 41.847656 253.289062 31.914062 241.019531 31.914062 " fill-opacity="1" fill-rule="nonzero"/></g></g></g></g></svg>