<svg xmlns="http://www.w3.org/2000/svg" xmlns:xlink="http://www.w3.org/1999/xlink" width="1000" zoomAndPan="magnify" viewBox="0 0 750 749.999995" height="1000" preserveAspectRatio="xMidYMid meet" version="1.0"><defs><g/><clipPath id="f1cf44852c"><path d="M 213.992188 101.078125 L 521.375 101.078125 L 521.375 157.535156 L 213.992188 157.535156 Z M 213.992188 101.078125 " clip-rule="nonzero"/></clipPath><clipPath id="cce13e8e49"><path d="M 29.457031 315.726562 L 217.707031 315.726562 L 217.707031 503.976562 L 29.457031 503.976562 Z M 29.457031 315.726562 " clip-rule="nonzero"/></clipPath><clipPath id="65d41783e0"><path d="M 29.09375 279 L 85.746094 279 L 85.746094 332.402344 L 29.09375 332.402344 Z M 29.09375 279 " clip-rule="nonzero"/></clipPath><clipPath id="794d0fbd71"><path d="M 29.457031 101.421875 L 217.707031 101.421875 L 217.707031 289.671875 L 29.457031 289.671875 Z M 29.457031 101.421875 " clip-rule="nonzero"/></clipPath><clipPath id="ff99b2ea9a"><path d="M 498.167969 79.730469 L 690.917969 79.730469 L 690.917969 178.730469 L 498.167969 178.730469 Z M 498.167969 79.730469 " clip-rule="nonzero"/></clipPath></defs><g fill="#004aad" fill-opacity="0.4"><g transform="translate(58.94685, 691.531498)"><g><path d="M 73.15625 -54.359375 C 73.15625 -49.242188 71.988281 -44.671875 69.65625 -40.640625 C 67.320312 -36.617188 63.984375 -33.503906 59.640625 -31.296875 C 55.296875 -29.097656 50.128906 -28 44.140625 -28 L 24.390625 -28 L 24.390625 0 L 7.734375 0 L 7.734375 -79.53125 L 43.46875 -79.53125 C 52.988281 -79.53125 60.316406 -77.335938 65.453125 -72.953125 C 70.585938 -68.578125 73.15625 -62.378906 73.15625 -54.359375 Z M 56.390625 -54.078125 C 56.390625 -62.429688 51.460938 -66.609375 41.609375 -66.609375 L 24.390625 -66.609375 L 24.390625 -40.8125 L 42.0625 -40.8125 C 46.644531 -40.8125 50.175781 -41.945312 52.65625 -44.21875 C 55.144531 -46.5 56.390625 -49.785156 56.390625 -54.078125 Z M 56.390625 -54.078125 "/></g></g></g><g fill="#004aad" fill-opacity="0.4"><g transform="translate(136.054791, 691.531498)"><g><path d="M 63.953125 0 L 56.90625 -20.328125 L 26.59375 -20.328125 L 19.53125 0 L 2.875 0 L 31.890625 -79.53125 L 51.53125 -79.53125 L 80.4375 0 Z M 41.71875 -67.28125 L 41.375 -66.046875 C 41 -64.691406 40.546875 -63.148438 40.015625 -61.421875 C 39.492188 -59.691406 36.257812 -50.171875 30.3125 -32.859375 L 53.171875 -32.859375 L 45.328125 -55.71875 L 42.90625 -63.390625 Z M 41.71875 -67.28125 "/></g></g></g><g fill="#004aad" fill-opacity="0.4"><g transform="translate(219.541359, 691.531498)"><g><path d="M 62.375 0 L 43.921875 -30.203125 L 24.390625 -30.203125 L 24.390625 0 L 7.734375 0 L 7.734375 -79.53125 L 47.46875 -79.53125 C 56.957031 -79.53125 64.28125 -77.488281 69.4375 -73.40625 C 74.59375 -69.320312 77.171875 -63.460938 77.171875 -55.828125 C 77.171875 -50.253906 75.585938 -45.445312 72.421875 -41.40625 C 69.265625 -37.363281 64.992188 -34.703125 59.609375 -33.421875 L 81.125 0 Z M 60.40625 -55.15625 C 60.40625 -62.789062 55.507812 -66.609375 45.71875 -66.609375 L 24.390625 -66.609375 L 24.390625 -43.125 L 46.171875 -43.125 C 50.835938 -43.125 54.375 -44.175781 56.78125 -46.28125 C 59.195312 -48.394531 60.40625 -51.351562 60.40625 -55.15625 Z M 60.40625 -55.15625 "/></g></g></g><g fill="#004aad" fill-opacity="0.4"><g transform="translate(303.027939, 691.531498)"><g><path d="M 7.734375 0 L 7.734375 -79.53125 L 70.28125 -79.53125 L 70.28125 -66.671875 L 24.390625 -66.671875 L 24.390625 -46.6875 L 66.84375 -46.6875 L 66.84375 -33.8125 L 24.390625 -33.8125 L 24.390625 -12.875 L 72.59375 -12.875 L 72.59375 0 Z M 7.734375 0 "/></g></g></g><g fill="#004aad" fill-opacity="0.4"><g transform="translate(380.135891, 691.531498)"><g/></g></g><g fill="#004aad" fill-opacity="0.4"><g transform="translate(412.254786, 691.531498)"><g><path d="M 63.953125 0 L 56.90625 -20.328125 L 26.59375 -20.328125 L 19.53125 0 L 2.875 0 L 31.890625 -79.53125 L 51.53125 -79.53125 L 80.4375 0 Z M 41.71875 -67.28125 L 41.375 -66.046875 C 41 -64.691406 40.546875 -63.148438 40.015625 -61.421875 C 39.492188 -59.691406 36.257812 -50.171875 30.3125 -32.859375 L 53.171875 -32.859375 L 45.328125 -55.71875 L 42.90625 -63.390625 Z M 41.71875 -67.28125 "/></g></g></g><g fill="#004aad" fill-opacity="0.4"><g transform="translate(495.741354, 691.531498)"><g><path d="M 85.0625 -40.140625 C 85.0625 -29.523438 82.457031 -20.6875 77.25 -13.625 C 72.039062 -6.570312 64.785156 -2.101562 55.484375 -0.21875 C 56.765625 3.5 58.5625 6.1875 60.875 7.84375 C 63.195312 9.5 66.445312 10.328125 70.625 10.328125 C 72.84375 10.328125 75.082031 10.140625 77.34375 9.765625 L 77.21875 21.171875 C 72.476562 22.222656 67.925781 22.75 63.5625 22.75 C 57.425781 22.75 52.34375 21.035156 48.3125 17.609375 C 44.289062 14.179688 41.054688 8.5 38.609375 0.5625 C 27.890625 -0.445312 19.5625 -4.535156 13.625 -11.703125 C 7.695312 -18.878906 4.734375 -28.359375 4.734375 -40.140625 C 4.734375 -52.890625 8.269531 -62.835938 15.34375 -69.984375 C 22.425781 -77.140625 32.269531 -80.71875 44.875 -80.71875 C 57.476562 -80.71875 67.328125 -77.101562 74.421875 -69.875 C 81.515625 -62.65625 85.0625 -52.742188 85.0625 -40.140625 Z M 68.078125 -40.140625 C 68.078125 -48.710938 66.046875 -55.4375 61.984375 -60.3125 C 57.921875 -65.1875 52.21875 -67.625 44.875 -67.625 C 37.425781 -67.625 31.664062 -65.207031 27.59375 -60.375 C 23.53125 -55.539062 21.5 -48.796875 21.5 -40.140625 C 21.5 -31.410156 23.566406 -24.519531 27.703125 -19.46875 C 31.847656 -14.425781 37.535156 -11.90625 44.765625 -11.90625 C 52.210938 -11.90625 57.957031 -14.351562 62 -19.25 C 66.050781 -24.144531 68.078125 -31.109375 68.078125 -40.140625 Z M 68.078125 -40.140625 "/></g></g></g><g fill="#004aad" fill-opacity="0.4"><g transform="translate(585.662981, 691.531498)"><g><path d="M 40.8125 1.125 C 29.863281 1.125 21.476562 -1.546875 15.65625 -6.890625 C 9.84375 -12.234375 6.9375 -19.875 6.9375 -29.8125 L 6.9375 -79.53125 L 23.59375 -79.53125 L 23.59375 -31.109375 C 23.59375 -24.816406 25.085938 -20.039062 28.078125 -16.78125 C 31.078125 -13.53125 35.472656 -11.90625 41.265625 -11.90625 C 47.210938 -11.90625 51.785156 -13.609375 54.984375 -17.015625 C 58.179688 -20.421875 59.78125 -25.304688 59.78125 -31.671875 L 59.78125 -79.53125 L 76.4375 -79.53125 L 76.4375 -30.65625 C 76.4375 -20.570312 73.320312 -12.753906 67.09375 -7.203125 C 60.863281 -1.648438 52.101562 1.125 40.8125 1.125 Z M 40.8125 1.125 "/></g></g></g><g fill="#004aad" fill-opacity="0.4"><g transform="translate(669.149549, 691.531498)"><g><path d="M 7.734375 0 L 7.734375 -79.53125 L 24.390625 -79.53125 L 24.390625 0 Z M 7.734375 0 "/></g></g></g><g fill="#ffffff" fill-opacity="1"><g transform="translate(53.837219, 686.421899)"><g><path d="M 73.15625 -54.359375 C 73.15625 -49.242188 71.988281 -44.671875 69.65625 -40.640625 C 67.320312 -36.617188 63.984375 -33.503906 59.640625 -31.296875 C 55.296875 -29.097656 50.128906 -28 44.140625 -28 L 24.390625 -28 L 24.390625 0 L 7.734375 0 L 7.734375 -79.53125 L 43.46875 -79.53125 C 52.988281 -79.53125 60.316406 -77.335938 65.453125 -72.953125 C 70.585938 -68.578125 73.15625 -62.378906 73.15625 -54.359375 Z M 56.390625 -54.078125 C 56.390625 -62.429688 51.460938 -66.609375 41.609375 -66.609375 L 24.390625 -66.609375 L 24.390625 -40.8125 L 42.0625 -40.8125 C 46.644531 -40.8125 50.175781 -41.945312 52.65625 -44.21875 C 55.144531 -46.5 56.390625 -49.785156 56.390625 -54.078125 Z M 56.390625 -54.078125 "/></g></g></g><g fill="#ffffff" fill-opacity="1"><g transform="translate(130.94516, 686.421899)"><g><path d="M 63.953125 0 L 56.90625 -20.328125 L 26.59375 -20.328125 L 19.53125 0 L 2.875 0 L 31.890625 -79.53125 L 51.53125 -79.53125 L 80.4375 0 Z M 41.71875 -67.28125 L 41.375 -66.046875 C 41 -64.691406 40.546875 -63.148438 40.015625 -61.421875 C 39.492188 -59.691406 36.257812 -50.171875 30.3125 -32.859375 L 53.171875 -32.859375 L 45.328125 -55.71875 L 42.90625 -63.390625 Z M 41.71875 -67.28125 "/></g></g></g><g fill="#ffffff" fill-opacity="1"><g transform="translate(214.431728, 686.421899)"><g><path d="M 62.375 0 L 43.921875 -30.203125 L 24.390625 -30.203125 L 24.390625 0 L 7.734375 0 L 7.734375 -79.53125 L 47.46875 -79.53125 C 56.957031 -79.53125 64.28125 -77.488281 69.4375 -73.40625 C 74.59375 -69.320312 77.171875 -63.460938 77.171875 -55.828125 C 77.171875 -50.253906 75.585938 -45.445312 72.421875 -41.40625 C 69.265625 -37.363281 64.992188 -34.703125 59.609375 -33.421875 L 81.125 0 Z M 60.40625 -55.15625 C 60.40625 -62.789062 55.507812 -66.609375 45.71875 -66.609375 L 24.390625 -66.609375 L 24.390625 -43.125 L 46.171875 -43.125 C 50.835938 -43.125 54.375 -44.175781 56.78125 -46.28125 C 59.195312 -48.394531 60.40625 -51.351562 60.40625 -55.15625 Z M 60.40625 -55.15625 "/></g></g></g><g fill="#ffffff" fill-opacity="1"><g transform="translate(297.918308, 686.421899)"><g><path d="M 7.734375 0 L 7.734375 -79.53125 L 70.28125 -79.53125 L 70.28125 -66.671875 L 24.390625 -66.671875 L 24.390625 -46.6875 L 66.84375 -46.6875 L 66.84375 -33.8125 L 24.390625 -33.8125 L 24.390625 -12.875 L 72.59375 -12.875 L 72.59375 0 Z M 7.734375 0 "/></g></g></g><g fill="#ffffff" fill-opacity="1"><g transform="translate(375.02626, 686.421899)"><g/></g></g><g fill="#ffffff" fill-opacity="1"><g transform="translate(407.145155, 686.421899)"><g><path d="M 63.953125 0 L 56.90625 -20.328125 L 26.59375 -20.328125 L 19.53125 0 L 2.875 0 L 31.890625 -79.53125 L 51.53125 -79.53125 L 80.4375 0 Z M 41.71875 -67.28125 L 41.375 -66.046875 C 41 -64.691406 40.546875 -63.148438 40.015625 -61.421875 C 39.492188 -59.691406 36.257812 -50.171875 30.3125 -32.859375 L 53.171875 -32.859375 L 45.328125 -55.71875 L 42.90625 -63.390625 Z M 41.71875 -67.28125 "/></g></g></g><g fill="#ffffff" fill-opacity="1"><g transform="translate(490.631723, 686.421899)"><g><path d="M 85.0625 -40.140625 C 85.0625 -29.523438 82.457031 -20.6875 77.25 -13.625 C 72.039062 -6.570312 64.785156 -2.101562 55.484375 -0.21875 C 56.765625 3.5 58.5625 6.1875 60.875 7.84375 C 63.195312 9.5 66.445312 10.328125 70.625 10.328125 C 72.84375 10.328125 75.082031 10.140625 77.34375 9.765625 L 77.21875 21.171875 C 72.476562 22.222656 67.925781 22.75 63.5625 22.75 C 57.425781 22.75 52.34375 21.035156 48.3125 17.609375 C 44.289062 14.179688 41.054688 8.5 38.609375 0.5625 C 27.890625 -0.445312 19.5625 -4.535156 13.625 -11.703125 C 7.695312 -18.878906 4.734375 -28.359375 4.734375 -40.140625 C 4.734375 -52.890625 8.269531 -62.835938 15.34375 -69.984375 C 22.425781 -77.140625 32.269531 -80.71875 44.875 -80.71875 C 57.476562 -80.71875 67.328125 -77.101562 74.421875 -69.875 C 81.515625 -62.65625 85.0625 -52.742188 85.0625 -40.140625 Z M 68.078125 -40.140625 C 68.078125 -48.710938 66.046875 -55.4375 61.984375 -60.3125 C 57.921875 -65.1875 52.21875 -67.625 44.875 -67.625 C 37.425781 -67.625 31.664062 -65.207031 27.59375 -60.375 C 23.53125 -55.539062 21.5 -48.796875 21.5 -40.140625 C 21.5 -31.410156 23.566406 -24.519531 27.703125 -19.46875 C 31.847656 -14.425781 37.535156 -11.90625 44.765625 -11.90625 C 52.210938 -11.90625 57.957031 -14.351562 62 -19.25 C 66.050781 -24.144531 68.078125 -31.109375 68.078125 -40.140625 Z M 68.078125 -40.140625 "/></g></g></g><g fill="#ffffff" fill-opacity="1"><g transform="translate(580.55335, 686.421899)"><g><path d="M 40.8125 1.125 C 29.863281 1.125 21.476562 -1.546875 15.65625 -6.890625 C 9.84375 -12.234375 6.9375 -19.875 6.9375 -29.8125 L 6.9375 -79.53125 L 23.59375 -79.53125 L 23.59375 -31.109375 C 23.59375 -24.816406 25.085938 -20.039062 28.078125 -16.78125 C 31.078125 -13.53125 35.472656 -11.90625 41.265625 -11.90625 C 47.210938 -11.90625 51.785156 -13.609375 54.984375 -17.015625 C 58.179688 -20.421875 59.78125 -25.304688 59.78125 -31.671875 L 59.78125 -79.53125 L 76.4375 -79.53125 L 76.4375 -30.65625 C 76.4375 -20.570312 73.320312 -12.753906 67.09375 -7.203125 C 60.863281 -1.648438 52.101562 1.125 40.8125 1.125 Z M 40.8125 1.125 "/></g></g></g><g fill="#ffffff" fill-opacity="1"><g transform="translate(664.039918, 686.421899)"><g><path d="M 7.734375 0 L 7.734375 -79.53125 L 24.390625 -79.53125 L 24.390625 0 Z M 7.734375 0 "/></g></g></g><path fill="#ffffff" d="M 688.636719 380.976562 L 683.320312 366 C 680.421875 357.785156 671.238281 351.019531 663.023438 351.019531 L 644.175781 351.019531 C 630.160156 311.878906 613.246094 264.523438 607.929688 253.410156 C 600.195312 236.015625 575.550781 228.285156 562.015625 224.417969 C 562.015625 224.417969 539.304688 215.722656 463.429688 215.722656 C 387.554688 215.722656 365.324219 224.417969 365.324219 224.417969 C 349.375 229.734375 327.144531 237.464844 318.445312 253.894531 C 314.09375 262.109375 296.695312 310.429688 282.679688 351.019531 L 264.316406 351.019531 C 256.101562 351.019531 246.917969 357.785156 244.019531 366 L 238.703125 380.976562 C 235.804688 389.191406 240.152344 395.957031 248.367188 395.957031 L 267.214844 395.957031 C 264.800781 402.722656 263.351562 406.585938 263.351562 406.585938 C 261.902344 409.003906 260.933594 420.117188 260.933594 423.5 L 260.933594 560.246094 C 260.933594 568.945312 268.183594 576.191406 276.882812 576.191406 L 334.875 576.191406 C 343.574219 576.191406 350.824219 568.945312 350.824219 560.246094 L 350.824219 531.253906 L 576.515625 531.253906 L 576.515625 560.246094 C 576.515625 568.945312 583.765625 576.191406 592.464844 576.191406 L 650.941406 576.191406 C 659.640625 576.191406 666.890625 568.945312 666.890625 560.246094 L 666.890625 423.5 C 666.890625 420.601562 665.921875 409.003906 664.472656 406.585938 C 664.472656 406.585938 663.023438 402.722656 660.605469 395.957031 L 678.972656 395.957031 C 686.703125 395.957031 691.054688 389.191406 688.636719 380.976562 Z M 350.824219 465.054688 L 331.492188 452.007812 C 295.730469 449.109375 291.378906 461.671875 283.648438 448.144531 L 283.648438 431.714844 C 283.648438 415.769531 292.832031 415.285156 302.980469 415.285156 C 312.644531 415.285156 331.976562 423.5 345.023438 429.296875 C 359.039062 435.578125 369.1875 430.265625 374.503906 451.042969 C 374.023438 460.707031 368.707031 465.054688 350.824219 465.054688 Z M 316.996094 357.300781 C 329.078125 308.011719 349.375 273.707031 352.273438 265.492188 C 354.207031 259.691406 349.375 249.0625 463.910156 249.0625 C 578.449219 249.0625 572.167969 264.523438 572.648438 265.007812 C 577.964844 276.121094 599.230469 312.363281 610.34375 357.300781 C 610.34375 357.300781 567.332031 363.097656 469.226562 363.097656 C 371.121094 363.097656 316.996094 357.300781 316.996094 357.300781 Z M 553.320312 451.042969 C 576.03125 423.015625 568.785156 435.578125 582.796875 429.296875 C 595.363281 423.5 615.179688 415.285156 624.84375 415.285156 C 634.992188 415.285156 644.175781 415.769531 644.175781 431.714844 L 644.175781 448.144531 C 636.925781 461.191406 630.644531 449.59375 594.398438 452.976562 L 576.515625 464.574219 C 558.632812 465.054688 547.035156 458.289062 553.320312 451.042969 Z M 553.320312 451.042969 " fill-opacity="1" fill-rule="nonzero"/><g clip-path="url(#f1cf44852c)"><path fill="#ffffff" d="M 213.992188 101.078125 L 521.617188 101.078125 L 521.617188 157.800781 L 213.992188 157.800781 Z M 213.992188 101.078125 " fill-opacity="1" fill-rule="nonzero"/></g><g clip-path="url(#cce13e8e49)"><path fill="#ffffff" d="M 217.707031 447.691406 C 144.886719 447.691406 85.742188 388.542969 85.742188 315.726562 L 29.457031 315.726562 C 29.457031 419.707031 113.726562 503.976562 217.707031 503.976562 Z M 217.707031 447.691406 " fill-opacity="1" fill-rule="nonzero"/></g><g clip-path="url(#65d41783e0)"><path fill="#ffffff" d="M 29.09375 332.402344 L 29.09375 279.019531 L 85.8125 279.019531 L 85.8125 332.402344 Z M 29.09375 332.402344 " fill-opacity="1" fill-rule="nonzero"/></g><g clip-path="url(#794d0fbd71)"><path fill="#ffffff" d="M 85.742188 289.671875 C 85.742188 216.851562 144.886719 157.707031 217.707031 157.707031 L 217.707031 101.421875 C 113.726562 101.421875 29.457031 185.6875 29.457031 289.671875 Z M 85.742188 289.671875 " fill-opacity="1" fill-rule="nonzero"/></g><g clip-path="url(#ff99b2ea9a)"><path fill="#ffffff" d="M 624.523438 178.730469 L 624.523438 157.546875 L 498.261719 157.546875 L 498.261719 100.917969 L 624.523438 100.917969 L 624.523438 79.730469 L 690.828125 129.230469 Z M 624.523438 178.730469 " fill-opacity="1" fill-rule="nonzero"/></g></svg>