<svg xmlns="http://www.w3.org/2000/svg" xmlns:xlink="http://www.w3.org/1999/xlink" width="1000" zoomAndPan="magnify" viewBox="0 0 750 749.999995" height="1000" preserveAspectRatio="xMidYMid meet" version="1.0"><defs><g/><clipPath id="d3b80a8e8f"><path d="M 455.066406 49 L 720.765625 49 L 720.765625 209.753906 L 455.066406 209.753906 Z M 455.066406 49 " clip-rule="nonzero"/></clipPath><clipPath id="a5aae16a54"><path d="M 213.992188 101.078125 L 521.375 101.078125 L 521.375 157.535156 L 213.992188 157.535156 Z M 213.992188 101.078125 " clip-rule="nonzero"/></clipPath><clipPath id="b9b6352529"><path d="M 29.503906 315.726562 L 217.707031 315.726562 L 217.707031 503.929688 L 29.503906 503.929688 Z M 29.503906 315.726562 " clip-rule="nonzero"/></clipPath><clipPath id="7d2a8bf78a"><path d="M 29.097656 279 L 85.753906 279 L 85.753906 332.402344 L 29.097656 332.402344 Z M 29.097656 279 " clip-rule="nonzero"/></clipPath><clipPath id="33cba59124"><path d="M 29.503906 101.46875 L 217.707031 101.46875 L 217.707031 289.671875 L 29.503906 289.671875 Z M 29.503906 101.46875 " clip-rule="nonzero"/></clipPath></defs><g fill="#004aad" fill-opacity="0.4"><g transform="translate(58.94685, 691.531498)"><g><path d="M 73.15625 -54.359375 C 73.15625 -49.242188 71.988281 -44.671875 69.65625 -40.640625 C 67.320312 -36.617188 63.984375 -33.503906 59.640625 -31.296875 C 55.296875 -29.097656 50.128906 -28 44.140625 -28 L 24.390625 -28 L 24.390625 0 L 7.734375 0 L 7.734375 -79.53125 L 43.46875 -79.53125 C 52.988281 -79.53125 60.316406 -77.335938 65.453125 -72.953125 C 70.585938 -68.578125 73.15625 -62.378906 73.15625 -54.359375 Z M 56.390625 -54.078125 C 56.390625 -62.429688 51.460938 -66.609375 41.609375 -66.609375 L 24.390625 -66.609375 L 24.390625 -40.8125 L 42.0625 -40.8125 C 46.644531 -40.8125 50.175781 -41.945312 52.65625 -44.21875 C 55.144531 -46.5 56.390625 -49.785156 56.390625 -54.078125 Z M 56.390625 -54.078125 "/></g></g></g><g fill="#004aad" fill-opacity="0.4"><g transform="translate(136.054791, 691.531498)"><g><path d="M 63.953125 0 L 56.90625 -20.328125 L 26.59375 -20.328125 L 19.53125 0 L 2.875 0 L 31.890625 -79.53125 L 51.53125 -79.53125 L 80.4375 0 Z M 41.71875 -67.28125 L 41.375 -66.046875 C 41 -64.691406 40.546875 -63.148438 40.015625 -61.421875 C 39.492188 -59.691406 36.257812 -50.171875 30.3125 -32.859375 L 53.171875 -32.859375 L 45.328125 -55.71875 L 42.90625 -63.390625 Z M 41.71875 -67.28125 "/></g></g></g><g fill="#004aad" fill-opacity="0.4"><g transform="translate(219.541359, 691.531498)"><g><path d="M 62.375 0 L 43.921875 -30.203125 L 24.390625 -30.203125 L 24.390625 0 L 7.734375 0 L 7.734375 -79.53125 L 47.46875 -79.53125 C 56.957031 -79.53125 64.28125 -77.488281 69.4375 -73.40625 C 74.59375 -69.320312 77.171875 -63.460938 77.171875 -55.828125 C 77.171875 -50.253906 75.585938 -45.445312 72.421875 -41.40625 C 69.265625 -37.363281 64.992188 -34.703125 59.609375 -33.421875 L 81.125 0 Z M 60.40625 -55.15625 C 60.40625 -62.789062 55.507812 -66.609375 45.71875 -66.609375 L 24.390625 -66.609375 L 24.390625 -43.125 L 46.171875 -43.125 C 50.835938 -43.125 54.375 -44.175781 56.78125 -46.28125 C 59.195312 -48.394531 60.40625 -51.351562 60.40625 -55.15625 Z M 60.40625 -55.15625 "/></g></g></g><g fill="#004aad" fill-opacity="0.4"><g transform="translate(303.027939, 691.531498)"><g><path d="M 7.734375 0 L 7.734375 -79.53125 L 70.28125 -79.53125 L 70.28125 -66.671875 L 24.390625 -66.671875 L 24.390625 -46.6875 L 66.84375 -46.6875 L 66.84375 -33.8125 L 24.390625 -33.8125 L 24.390625 -12.875 L 72.59375 -12.875 L 72.59375 0 Z M 7.734375 0 "/></g></g></g><g fill="#004aad" fill-opacity="0.4"><g transform="translate(380.135891, 691.531498)"><g/></g></g><g fill="#004aad" fill-opacity="0.4"><g transform="translate(412.254786, 691.531498)"><g><path d="M 63.953125 0 L 56.90625 -20.328125 L 26.59375 -20.328125 L 19.53125 0 L 2.875 0 L 31.890625 -79.53125 L 51.53125 -79.53125 L 80.4375 0 Z M 41.71875 -67.28125 L 41.375 -66.046875 C 41 -64.691406 40.546875 -63.148438 40.015625 -61.421875 C 39.492188 -59.691406 36.257812 -50.171875 30.3125 -32.859375 L 53.171875 -32.859375 L 45.328125 -55.71875 L 42.90625 -63.390625 Z M 41.71875 -67.28125 "/></g></g></g><g fill="#004aad" fill-opacity="0.4"><g transform="translate(495.741354, 691.531498)"><g><path d="M 85.0625 -40.140625 C 85.0625 -29.523438 82.457031 -20.6875 77.25 -13.625 C 72.039062 -6.570312 64.785156 -2.101562 55.484375 -0.21875 C 56.765625 3.5 58.5625 6.1875 60.875 7.84375 C 63.195312 9.5 66.445312 10.328125 70.625 10.328125 C 72.84375 10.328125 75.082031 10.140625 77.34375 9.765625 L 77.21875 21.171875 C 72.476562 22.222656 67.925781 22.75 63.5625 22.75 C 57.425781 22.75 52.34375 21.035156 48.3125 17.609375 C 44.289062 14.179688 41.054688 8.5 38.609375 0.5625 C 27.890625 -0.445312 19.5625 -4.535156 13.625 -11.703125 C 7.695312 -18.878906 4.734375 -28.359375 4.734375 -40.140625 C 4.734375 -52.890625 8.269531 -62.835938 15.34375 -69.984375 C 22.425781 -77.140625 32.269531 -80.71875 44.875 -80.71875 C 57.476562 -80.71875 67.328125 -77.101562 74.421875 -69.875 C 81.515625 -62.65625 85.0625 -52.742188 85.0625 -40.140625 Z M 68.078125 -40.140625 C 68.078125 -48.710938 66.046875 -55.4375 61.984375 -60.3125 C 57.921875 -65.1875 52.21875 -67.625 44.875 -67.625 C 37.425781 -67.625 31.664062 -65.207031 27.59375 -60.375 C 23.53125 -55.539062 21.5 -48.796875 21.5 -40.140625 C 21.5 -31.410156 23.566406 -24.519531 27.703125 -19.46875 C 31.847656 -14.425781 37.535156 -11.90625 44.765625 -11.90625 C 52.210938 -11.90625 57.957031 -14.351562 62 -19.25 C 66.050781 -24.144531 68.078125 -31.109375 68.078125 -40.140625 Z M 68.078125 -40.140625 "/></g></g></g><g fill="#004aad" fill-opacity="0.4"><g transform="translate(585.662981, 691.531498)"><g><path d="M 40.8125 1.125 C 29.863281 1.125 21.476562 -1.546875 15.65625 -6.890625 C 9.84375 -12.234375 6.9375 -19.875 6.9375 -29.8125 L 6.9375 -79.53125 L 23.59375 -79.53125 L 23.59375 -31.109375 C 23.59375 -24.816406 25.085938 -20.039062 28.078125 -16.78125 C 31.078125 -13.53125 35.472656 -11.90625 41.265625 -11.90625 C 47.210938 -11.90625 51.785156 -13.609375 54.984375 -17.015625 C 58.179688 -20.421875 59.78125 -25.304688 59.78125 -31.671875 L 59.78125 -79.53125 L 76.4375 -79.53125 L 76.4375 -30.65625 C 76.4375 -20.570312 73.320312 -12.753906 67.09375 -7.203125 C 60.863281 -1.648438 52.101562 1.125 40.8125 1.125 Z M 40.8125 1.125 "/></g></g></g><g fill="#004aad" fill-opacity="0.4"><g transform="translate(669.149549, 691.531498)"><g><path d="M 7.734375 0 L 7.734375 -79.53125 L 24.390625 -79.53125 L 24.390625 0 Z M 7.734375 0 "/></g></g></g><g fill="#ffffff" fill-opacity="1"><g transform="translate(53.837219, 686.421899)"><g><path d="M 73.15625 -54.359375 C 73.15625 -49.242188 71.988281 -44.671875 69.65625 -40.640625 C 67.320312 -36.617188 63.984375 -33.503906 59.640625 -31.296875 C 55.296875 -29.097656 50.128906 -28 44.140625 -28 L 24.390625 -28 L 24.390625 0 L 7.734375 0 L 7.734375 -79.53125 L 43.46875 -79.53125 C 52.988281 -79.53125 60.316406 -77.335938 65.453125 -72.953125 C 70.585938 -68.578125 73.15625 -62.378906 73.15625 -54.359375 Z M 56.390625 -54.078125 C 56.390625 -62.429688 51.460938 -66.609375 41.609375 -66.609375 L 24.390625 -66.609375 L 24.390625 -40.8125 L 42.0625 -40.8125 C 46.644531 -40.8125 50.175781 -41.945312 52.65625 -44.21875 C 55.144531 -46.5 56.390625 -49.785156 56.390625 -54.078125 Z M 56.390625 -54.078125 "/></g></g></g><g fill="#ffffff" fill-opacity="1"><g transform="translate(130.94516, 686.421899)"><g><path d="M 63.953125 0 L 56.90625 -20.328125 L 26.59375 -20.328125 L 19.53125 0 L 2.875 0 L 31.890625 -79.53125 L 51.53125 -79.53125 L 80.4375 0 Z M 41.71875 -67.28125 L 41.375 -66.046875 C 41 -64.691406 40.546875 -63.148438 40.015625 -61.421875 C 39.492188 -59.691406 36.257812 -50.171875 30.3125 -32.859375 L 53.171875 -32.859375 L 45.328125 -55.71875 L 42.90625 -63.390625 Z M 41.71875 -67.28125 "/></g></g></g><g fill="#ffffff" fill-opacity="1"><g transform="translate(214.431728, 686.421899)"><g><path d="M 62.375 0 L 43.921875 -30.203125 L 24.390625 -30.203125 L 24.390625 0 L 7.734375 0 L 7.734375 -79.53125 L 47.46875 -79.53125 C 56.957031 -79.53125 64.28125 -77.488281 69.4375 -73.40625 C 74.59375 -69.320312 77.171875 -63.460938 77.171875 -55.828125 C 77.171875 -50.253906 75.585938 -45.445312 72.421875 -41.40625 C 69.265625 -37.363281 64.992188 -34.703125 59.609375 -33.421875 L 81.125 0 Z M 60.40625 -55.15625 C 60.40625 -62.789062 55.507812 -66.609375 45.71875 -66.609375 L 24.390625 -66.609375 L 24.390625 -43.125 L 46.171875 -43.125 C 50.835938 -43.125 54.375 -44.175781 56.78125 -46.28125 C 59.195312 -48.394531 60.40625 -51.351562 60.40625 -55.15625 Z M 60.40625 -55.15625 "/></g></g></g><g fill="#ffffff" fill-opacity="1"><g transform="translate(297.918308, 686.421899)"><g><path d="M 7.734375 0 L 7.734375 -79.53125 L 70.28125 -79.53125 L 70.28125 -66.671875 L 24.390625 -66.671875 L 24.390625 -46.6875 L 66.84375 -46.6875 L 66.84375 -33.8125 L 24.390625 -33.8125 L 24.390625 -12.875 L 72.59375 -12.875 L 72.59375 0 Z M 7.734375 0 "/></g></g></g><g fill="#ffffff" fill-opacity="1"><g transform="translate(375.02626, 686.421899)"><g/></g></g><g fill="#ffffff" fill-opacity="1"><g transform="translate(407.145155, 686.421899)"><g><path d="M 63.953125 0 L 56.90625 -20.328125 L 26.59375 -20.328125 L 19.53125 0 L 2.875 0 L 31.890625 -79.53125 L 51.53125 -79.53125 L 80.4375 0 Z M 41.71875 -67.28125 L 41.375 -66.046875 C 41 -64.691406 40.546875 -63.148438 40.015625 -61.421875 C 39.492188 -59.691406 36.257812 -50.171875 30.3125 -32.859375 L 53.171875 -32.859375 L 45.328125 -55.71875 L 42.90625 -63.390625 Z M 41.71875 -67.28125 "/></g></g></g><g fill="#ffffff" fill-opacity="1"><g transform="translate(490.631723, 686.421899)"><g><path d="M 85.0625 -40.140625 C 85.0625 -29.523438 82.457031 -20.6875 77.25 -13.625 C 72.039062 -6.570312 64.785156 -2.101562 55.484375 -0.21875 C 56.765625 3.5 58.5625 6.1875 60.875 7.84375 C 63.195312 9.5 66.445312 10.328125 70.625 10.328125 C 72.84375 10.328125 75.082031 10.140625 77.34375 9.765625 L 77.21875 21.171875 C 72.476562 22.222656 67.925781 22.75 63.5625 22.75 C 57.425781 22.75 52.34375 21.035156 48.3125 17.609375 C 44.289062 14.179688 41.054688 8.5 38.609375 0.5625 C 27.890625 -0.445312 19.5625 -4.535156 13.625 -11.703125 C 7.695312 -18.878906 4.734375 -28.359375 4.734375 -40.140625 C 4.734375 -52.890625 8.269531 -62.835938 15.34375 -69.984375 C 22.425781 -77.140625 32.269531 -80.71875 44.875 -80.71875 C 57.476562 -80.71875 67.328125 -77.101562 74.421875 -69.875 C 81.515625 -62.65625 85.0625 -52.742188 85.0625 -40.140625 Z M 68.078125 -40.140625 C 68.078125 -48.710938 66.046875 -55.4375 61.984375 -60.3125 C 57.921875 -65.1875 52.21875 -67.625 44.875 -67.625 C 37.425781 -67.625 31.664062 -65.207031 27.59375 -60.375 C 23.53125 -55.539062 21.5 -48.796875 21.5 -40.140625 C 21.5 -31.410156 23.566406 -24.519531 27.703125 -19.46875 C 31.847656 -14.425781 37.535156 -11.90625 44.765625 -11.90625 C 52.210938 -11.90625 57.957031 -14.351562 62 -19.25 C 66.050781 -24.144531 68.078125 -31.109375 68.078125 -40.140625 Z M 68.078125 -40.140625 "/></g></g></g><g fill="#ffffff" fill-opacity="1"><g transform="translate(580.55335, 686.421899)"><g><path d="M 40.8125 1.125 C 29.863281 1.125 21.476562 -1.546875 15.65625 -6.890625 C 9.84375 -12.234375 6.9375 -19.875 6.9375 -29.8125 L 6.9375 -79.53125 L 23.59375 -79.53125 L 23.59375 -31.109375 C 23.59375 -24.816406 25.085938 -20.039062 28.078125 -16.78125 C 31.078125 -13.53125 35.472656 -11.90625 41.265625 -11.90625 C 47.210938 -11.90625 51.785156 -13.609375 54.984375 -17.015625 C 58.179688 -20.421875 59.78125 -25.304688 59.78125 -31.671875 L 59.78125 -79.53125 L 76.4375 -79.53125 L 76.4375 -30.65625 C 76.4375 -20.570312 73.320312 -12.753906 67.09375 -7.203125 C 60.863281 -1.648438 52.101562 1.125 40.8125 1.125 Z M 40.8125 1.125 "/></g></g></g><g fill="#ffffff" fill-opacity="1"><g transform="translate(664.039918, 686.421899)"><g><path d="M 7.734375 0 L 7.734375 -79.53125 L 24.390625 -79.53125 L 24.390625 0 Z M 7.734375 0 "/></g></g></g><path fill="#ffffff" d="M 688.296875 380.664062 L 682.984375 365.714844 C 680.085938 357.515625 670.914062 350.761719 662.703125 350.761719 L 643.867188 350.761719 C 629.863281 311.699219 612.960938 264.4375 607.648438 253.34375 C 599.921875 235.980469 575.292969 228.265625 561.773438 224.40625 C 561.773438 224.40625 539.074219 215.726562 463.257812 215.726562 C 387.441406 215.726562 365.226562 224.40625 365.226562 224.40625 C 349.289062 229.710938 327.074219 237.429688 318.382812 253.824219 C 314.035156 262.023438 296.652344 310.253906 282.644531 350.761719 L 264.296875 350.761719 C 256.085938 350.761719 246.910156 357.515625 244.011719 365.714844 L 238.699219 380.664062 C 235.804688 388.863281 240.148438 395.617188 248.359375 395.617188 L 267.191406 395.617188 C 264.777344 402.367188 263.328125 406.226562 263.328125 406.226562 C 261.882812 408.636719 260.914062 419.730469 260.914062 423.105469 L 260.914062 559.589844 C 260.914062 568.269531 268.160156 575.503906 276.851562 575.503906 L 334.800781 575.503906 C 343.492188 575.503906 350.738281 568.269531 350.738281 559.589844 L 350.738281 530.652344 L 576.261719 530.652344 L 576.261719 559.589844 C 576.261719 568.269531 583.503906 575.503906 592.195312 575.503906 L 650.628906 575.503906 C 659.324219 575.503906 666.566406 568.269531 666.566406 559.589844 L 666.566406 423.105469 C 666.566406 420.210938 665.601562 408.636719 664.152344 406.226562 C 664.152344 406.226562 662.703125 402.367188 660.289062 395.617188 L 678.640625 395.617188 C 686.367188 395.617188 690.710938 388.863281 688.296875 380.664062 Z M 350.738281 464.582031 L 331.421875 451.558594 C 295.683594 448.664062 291.339844 461.207031 283.613281 447.703125 L 283.613281 431.304688 C 283.613281 415.390625 292.789062 414.90625 302.929688 414.90625 C 312.585938 414.90625 331.902344 423.105469 344.941406 428.894531 C 358.949219 435.164062 369.089844 429.855469 374.402344 450.59375 C 373.917969 460.242188 368.605469 464.582031 350.738281 464.582031 Z M 316.933594 357.035156 C 329.007812 307.839844 349.289062 273.597656 352.1875 265.402344 C 354.117188 259.613281 349.289062 249.003906 463.742188 249.003906 C 578.191406 249.003906 571.914062 264.4375 572.398438 264.917969 C 577.710938 276.011719 598.957031 312.179688 610.066406 357.035156 C 610.066406 357.035156 567.085938 362.820312 469.054688 362.820312 C 371.019531 362.820312 316.933594 357.035156 316.933594 357.035156 Z M 553.082031 450.59375 C 575.777344 422.621094 568.535156 435.164062 582.539062 428.894531 C 595.09375 423.105469 614.894531 414.90625 624.550781 414.90625 C 634.695312 414.90625 643.867188 415.390625 643.867188 431.304688 L 643.867188 447.703125 C 636.625 460.722656 630.347656 449.148438 594.128906 452.523438 L 576.261719 464.097656 C 558.390625 464.582031 546.800781 457.828125 553.082031 450.59375 Z M 553.082031 450.59375 " fill-opacity="1" fill-rule="nonzero"/><g clip-path="url(#d3b80a8e8f)"><path fill="#ffffff" d="M 718.871094 126.949219 L 610.40625 50.191406 C 608.765625 49.011719 606.699219 48.882812 604.890625 49.804688 C 604.042969 50.246094 602.085938 51.574219 602.085938 54.398438 L 602.085938 96.417969 C 602.085938 99.019531 599.964844 101.140625 597.363281 101.140625 L 460.375 101.140625 C 457.773438 101.140625 455.652344 103.261719 455.652344 105.863281 L 455.652344 153.085938 C 455.652344 155.6875 457.773438 157.808594 460.375 157.808594 L 597.363281 157.808594 C 599.964844 157.808594 602.085938 159.929688 602.085938 162.53125 L 602.085938 204.550781 C 602.085938 207.375 604.042969 208.703125 604.890625 209.144531 C 606.699219 210.085938 608.765625 209.917969 610.425781 208.757812 L 718.871094 132.003906 C 720.050781 131.152344 720.179688 129.953125 720.179688 129.476562 C 720.179688 128.996094 720.050781 127.796875 718.871094 126.949219 " fill-opacity="1" fill-rule="nonzero"/></g><g clip-path="url(#a5aae16a54)"><path fill="#ffffff" d="M 213.992188 101.078125 L 523.617188 101.078125 L 523.617188 159.800781 L 213.992188 159.800781 Z M 213.992188 101.078125 " fill-opacity="1" fill-rule="nonzero"/></g><g clip-path="url(#b9b6352529)"><path fill="#ffffff" d="M 217.707031 447.65625 C 144.90625 447.65625 85.773438 388.527344 85.773438 315.726562 L 29.503906 315.726562 C 29.503906 419.683594 113.75 503.929688 217.707031 503.929688 Z M 217.707031 447.65625 " fill-opacity="1" fill-rule="nonzero"/></g><g clip-path="url(#7d2a8bf78a)"><path fill="#ffffff" d="M 29.097656 332.402344 L 29.097656 279.019531 L 87.820312 279.019531 L 87.820312 332.402344 Z M 29.097656 332.402344 " fill-opacity="1" fill-rule="nonzero"/></g><g clip-path="url(#33cba59124)"><path fill="#ffffff" d="M 85.773438 289.671875 C 85.773438 216.867188 144.90625 157.738281 217.707031 157.738281 L 217.707031 101.46875 C 113.75 101.46875 29.503906 185.714844 29.503906 289.671875 Z M 85.773438 289.671875 " fill-opacity="1" fill-rule="nonzero"/></g></svg>