<svg xmlns="http://www.w3.org/2000/svg" xmlns:xlink="http://www.w3.org/1999/xlink" width="1000" zoomAndPan="magnify" viewBox="0 0 750 749.999995" height="1000" preserveAspectRatio="xMidYMid meet" version="1.0"><path fill="#ffffff" d="M 713.695312 352.390625 L 705.699219 329.859375 C 701.339844 317.503906 687.527344 307.328125 675.167969 307.328125 L 646.820312 307.328125 C 625.738281 248.457031 600.296875 177.230469 592.300781 160.515625 C 580.671875 134.351562 543.597656 122.722656 523.246094 116.90625 C 523.246094 116.90625 489.082031 103.824219 374.957031 103.824219 C 260.832031 103.824219 227.390625 116.90625 227.390625 116.90625 C 203.402344 124.902344 169.964844 136.53125 156.882812 161.242188 C 150.339844 173.597656 124.171875 246.277344 103.089844 307.328125 L 75.46875 307.328125 C 63.109375 307.328125 49.300781 317.503906 44.9375 329.859375 L 36.941406 352.390625 C 32.582031 364.746094 39.121094 374.921875 51.480469 374.921875 L 79.828125 374.921875 C 76.195312 385.09375 74.015625 390.910156 74.015625 390.910156 C 71.832031 394.542969 70.378906 411.261719 70.378906 416.347656 L 70.378906 622.03125 C 70.378906 635.113281 81.285156 646.015625 94.367188 646.015625 L 181.597656 646.015625 C 194.679688 646.015625 205.585938 635.113281 205.585938 622.03125 L 205.585938 578.421875 L 545.050781 578.421875 L 545.050781 622.03125 C 545.050781 635.113281 555.957031 646.015625 569.039062 646.015625 L 656.996094 646.015625 C 670.082031 646.015625 680.984375 635.113281 680.984375 622.03125 L 680.984375 416.347656 C 680.984375 411.988281 679.53125 394.542969 677.351562 390.910156 C 677.351562 390.910156 675.167969 385.09375 671.535156 374.921875 L 699.15625 374.921875 C 710.789062 374.921875 717.332031 364.746094 713.695312 352.390625 Z M 205.585938 478.851562 L 176.507812 459.226562 C 122.71875 454.867188 116.175781 473.765625 104.542969 453.414062 L 104.542969 428.703125 C 104.542969 404.71875 118.355469 403.992188 133.621094 403.992188 C 148.160156 403.992188 177.234375 416.347656 196.863281 425.070312 C 217.941406 434.515625 233.207031 426.523438 241.203125 457.773438 C 240.476562 472.3125 232.480469 478.851562 205.585938 478.851562 Z M 154.703125 316.777344 C 172.875 242.644531 203.402344 191.042969 207.765625 178.683594 C 210.671875 169.964844 203.402344 153.972656 375.683594 153.972656 C 547.960938 153.972656 538.511719 177.230469 539.238281 177.957031 C 547.234375 194.675781 579.21875 249.183594 595.9375 316.777344 C 595.9375 316.777344 531.242188 325.5 383.679688 325.5 C 236.113281 325.5 154.703125 316.777344 154.703125 316.777344 Z M 510.160156 457.773438 C 544.324219 415.621094 533.421875 434.515625 554.503906 425.070312 C 573.402344 416.347656 603.207031 403.992188 617.742188 403.992188 C 633.007812 403.992188 646.820312 404.71875 646.820312 428.703125 L 646.820312 453.414062 C 635.917969 473.039062 626.464844 455.59375 571.949219 460.683594 L 545.050781 478.125 C 518.15625 478.851562 500.710938 468.675781 510.160156 457.773438 Z M 510.160156 457.773438 " fill-opacity="1" fill-rule="nonzero"/></svg>