<svg xmlns="http://www.w3.org/2000/svg" xmlns:xlink="http://www.w3.org/1999/xlink" width="1000" zoomAndPan="magnify" viewBox="0 0 750 749.999995" height="1000" preserveAspectRatio="xMidYMid meet" version="1.0"><defs><g/><clipPath id="207b6b5302"><path d="M 455.066406 49 L 720.765625 49 L 720.765625 209.753906 L 455.066406 209.753906 Z M 455.066406 49 " clip-rule="nonzero"/></clipPath><clipPath id="1ef8795393"><path d="M 213.992188 101.078125 L 521.375 101.078125 L 521.375 157.535156 L 213.992188 157.535156 Z M 213.992188 101.078125 " clip-rule="nonzero"/></clipPath><clipPath id="2d896406de"><path d="M 29.503906 315.726562 L 217.707031 315.726562 L 217.707031 503.929688 L 29.503906 503.929688 Z M 29.503906 315.726562 " clip-rule="nonzero"/></clipPath><clipPath id="34cc178dcd"><path d="M 29.097656 279 L 85.753906 279 L 85.753906 332.402344 L 29.097656 332.402344 Z M 29.097656 279 " clip-rule="nonzero"/></clipPath><clipPath id="e57e4f417b"><path d="M 29.503906 101.46875 L 217.707031 101.46875 L 217.707031 289.671875 L 29.503906 289.671875 Z M 29.503906 101.46875 " clip-rule="nonzero"/></clipPath></defs><g fill="#004aad" fill-opacity="0.4"><g transform="translate(61.660252, 689.123732)"><g><path d="M 72.53125 -53.890625 C 72.53125 -48.816406 71.375 -44.28125 69.0625 -40.28125 C 66.75 -36.289062 63.4375 -33.203125 59.125 -31.015625 C 54.8125 -28.835938 49.691406 -27.75 43.765625 -27.75 L 24.171875 -27.75 L 24.171875 0 L 7.671875 0 L 7.671875 -78.84375 L 43.09375 -78.84375 C 52.53125 -78.84375 59.796875 -76.671875 64.890625 -72.328125 C 69.984375 -67.984375 72.53125 -61.835938 72.53125 -53.890625 Z M 55.90625 -53.609375 C 55.90625 -61.890625 51.019531 -66.03125 41.25 -66.03125 L 24.171875 -66.03125 L 24.171875 -40.453125 L 41.6875 -40.453125 C 46.238281 -40.453125 49.742188 -41.582031 52.203125 -43.84375 C 54.671875 -46.101562 55.90625 -49.359375 55.90625 -53.609375 Z M 55.90625 -53.609375 "/></g></g></g><g fill="#004aad" fill-opacity="0.4"><g transform="translate(138.10284, 689.123732)"><g><path d="M 63.40625 0 L 56.40625 -20.140625 L 26.359375 -20.140625 L 19.359375 0 L 2.859375 0 L 31.625 -78.84375 L 51.09375 -78.84375 L 79.75 0 Z M 41.359375 -66.703125 L 41.015625 -65.46875 C 40.640625 -64.125 40.191406 -62.59375 39.671875 -60.875 C 39.148438 -59.164062 35.941406 -49.726562 30.046875 -32.5625 L 52.71875 -32.5625 L 44.9375 -55.234375 L 42.53125 -62.84375 Z M 41.359375 -66.703125 "/></g></g></g><g fill="#004aad" fill-opacity="0.4"><g transform="translate(220.869018, 689.123732)"><g><path d="M 61.84375 0 L 43.53125 -29.9375 L 24.171875 -29.9375 L 24.171875 0 L 7.671875 0 L 7.671875 -78.84375 L 47.0625 -78.84375 C 56.46875 -78.84375 63.722656 -76.816406 68.828125 -72.765625 C 73.941406 -68.722656 76.5 -62.914062 76.5 -55.34375 C 76.5 -49.820312 74.929688 -45.054688 71.796875 -41.046875 C 68.660156 -37.035156 64.425781 -34.394531 59.09375 -33.125 L 80.421875 0 Z M 59.875 -54.671875 C 59.875 -62.242188 55.023438 -66.03125 45.328125 -66.03125 L 24.171875 -66.03125 L 24.171875 -42.75 L 45.78125 -42.75 C 50.40625 -42.75 53.910156 -43.789062 56.296875 -45.875 C 58.679688 -47.96875 59.875 -50.898438 59.875 -54.671875 Z M 59.875 -54.671875 "/></g></g></g><g fill="#004aad" fill-opacity="0.4"><g transform="translate(303.635196, 689.123732)"><g><path d="M 7.671875 0 L 7.671875 -78.84375 L 69.671875 -78.84375 L 69.671875 -66.09375 L 24.171875 -66.09375 L 24.171875 -46.28125 L 66.265625 -46.28125 L 66.265625 -33.515625 L 24.171875 -33.515625 L 24.171875 -12.765625 L 71.96875 -12.765625 L 71.96875 0 Z M 7.671875 0 "/></g></g></g><g fill="#004aad" fill-opacity="0.4"><g transform="translate(380.077784, 689.123732)"><g/></g></g><g fill="#004aad" fill-opacity="0.4"><g transform="translate(411.919544, 689.123732)"><g><path d="M 63.40625 0 L 56.40625 -20.140625 L 26.359375 -20.140625 L 19.359375 0 L 2.859375 0 L 31.625 -78.84375 L 51.09375 -78.84375 L 79.75 0 Z M 41.359375 -66.703125 L 41.015625 -65.46875 C 40.640625 -64.125 40.191406 -62.59375 39.671875 -60.875 C 39.148438 -59.164062 35.941406 -49.726562 30.046875 -32.5625 L 52.71875 -32.5625 L 44.9375 -55.234375 L 42.53125 -62.84375 Z M 41.359375 -66.703125 "/></g></g></g><g fill="#004aad" fill-opacity="0.4"><g transform="translate(494.685705, 689.123732)"><g><path d="M 84.328125 -39.78125 C 84.328125 -29.257812 81.742188 -20.5 76.578125 -13.5 C 71.410156 -6.507812 64.222656 -2.082031 55.015625 -0.21875 C 56.273438 3.46875 58.050781 6.128906 60.34375 7.765625 C 62.644531 9.410156 65.867188 10.234375 70.015625 10.234375 C 72.210938 10.234375 74.429688 10.050781 76.671875 9.6875 L 76.5625 20.984375 C 71.851562 22.023438 67.335938 22.546875 63.015625 22.546875 C 56.929688 22.546875 51.894531 20.847656 47.90625 17.453125 C 43.914062 14.066406 40.707031 8.4375 38.28125 0.5625 C 27.644531 -0.445312 19.390625 -4.503906 13.515625 -11.609375 C 7.640625 -18.710938 4.703125 -28.101562 4.703125 -39.78125 C 4.703125 -52.4375 8.207031 -62.304688 15.21875 -69.390625 C 22.238281 -76.484375 31.992188 -80.03125 44.484375 -80.03125 C 56.984375 -80.03125 66.75 -76.445312 73.78125 -69.28125 C 80.8125 -62.113281 84.328125 -52.28125 84.328125 -39.78125 Z M 67.484375 -39.78125 C 67.484375 -48.289062 65.46875 -54.960938 61.4375 -59.796875 C 57.414062 -64.628906 51.765625 -67.046875 44.484375 -67.046875 C 37.097656 -67.046875 31.390625 -64.644531 27.359375 -59.84375 C 23.335938 -55.050781 21.328125 -48.363281 21.328125 -39.78125 C 21.328125 -31.132812 23.378906 -24.3125 27.484375 -19.3125 C 31.585938 -14.3125 37.21875 -11.8125 44.375 -11.8125 C 51.757812 -11.8125 57.457031 -14.234375 61.46875 -19.078125 C 65.476562 -23.929688 67.484375 -30.832031 67.484375 -39.78125 Z M 67.484375 -39.78125 "/></g></g></g><g fill="#004aad" fill-opacity="0.4"><g transform="translate(583.831426, 689.123732)"><g><path d="M 40.453125 1.125 C 29.597656 1.125 21.289062 -1.523438 15.53125 -6.828125 C 9.769531 -12.128906 6.890625 -19.703125 6.890625 -29.546875 L 6.890625 -78.84375 L 23.390625 -78.84375 L 23.390625 -30.828125 C 23.390625 -24.597656 24.875 -19.867188 27.84375 -16.640625 C 30.8125 -13.421875 35.164062 -11.8125 40.90625 -11.8125 C 46.800781 -11.8125 51.332031 -13.5 54.5 -16.875 C 57.675781 -20.25 59.265625 -25.085938 59.265625 -31.390625 L 59.265625 -78.84375 L 75.765625 -78.84375 L 75.765625 -30.390625 C 75.765625 -20.390625 72.675781 -12.632812 66.5 -7.125 C 60.332031 -1.625 51.648438 1.125 40.453125 1.125 Z M 40.453125 1.125 "/></g></g></g><g fill="#004aad" fill-opacity="0.4"><g transform="translate(666.597587, 689.123732)"><g><path d="M 7.671875 0 L 7.671875 -78.84375 L 24.171875 -78.84375 L 24.171875 0 Z M 7.671875 0 "/></g></g></g><g fill="#004aad" fill-opacity="1"><g transform="translate(56.594805, 684.058292)"><g><path d="M 72.53125 -53.890625 C 72.53125 -48.816406 71.375 -44.28125 69.0625 -40.28125 C 66.75 -36.289062 63.4375 -33.203125 59.125 -31.015625 C 54.8125 -28.835938 49.691406 -27.75 43.765625 -27.75 L 24.171875 -27.75 L 24.171875 0 L 7.671875 0 L 7.671875 -78.84375 L 43.09375 -78.84375 C 52.53125 -78.84375 59.796875 -76.671875 64.890625 -72.328125 C 69.984375 -67.984375 72.53125 -61.835938 72.53125 -53.890625 Z M 55.90625 -53.609375 C 55.90625 -61.890625 51.019531 -66.03125 41.25 -66.03125 L 24.171875 -66.03125 L 24.171875 -40.453125 L 41.6875 -40.453125 C 46.238281 -40.453125 49.742188 -41.582031 52.203125 -43.84375 C 54.671875 -46.101562 55.90625 -49.359375 55.90625 -53.609375 Z M 55.90625 -53.609375 "/></g></g></g><g fill="#004aad" fill-opacity="1"><g transform="translate(133.037393, 684.058292)"><g><path d="M 63.40625 0 L 56.40625 -20.140625 L 26.359375 -20.140625 L 19.359375 0 L 2.859375 0 L 31.625 -78.84375 L 51.09375 -78.84375 L 79.75 0 Z M 41.359375 -66.703125 L 41.015625 -65.46875 C 40.640625 -64.125 40.191406 -62.59375 39.671875 -60.875 C 39.148438 -59.164062 35.941406 -49.726562 30.046875 -32.5625 L 52.71875 -32.5625 L 44.9375 -55.234375 L 42.53125 -62.84375 Z M 41.359375 -66.703125 "/></g></g></g><g fill="#004aad" fill-opacity="1"><g transform="translate(215.803571, 684.058292)"><g><path d="M 61.84375 0 L 43.53125 -29.9375 L 24.171875 -29.9375 L 24.171875 0 L 7.671875 0 L 7.671875 -78.84375 L 47.0625 -78.84375 C 56.46875 -78.84375 63.722656 -76.816406 68.828125 -72.765625 C 73.941406 -68.722656 76.5 -62.914062 76.5 -55.34375 C 76.5 -49.820312 74.929688 -45.054688 71.796875 -41.046875 C 68.660156 -37.035156 64.425781 -34.394531 59.09375 -33.125 L 80.421875 0 Z M 59.875 -54.671875 C 59.875 -62.242188 55.023438 -66.03125 45.328125 -66.03125 L 24.171875 -66.03125 L 24.171875 -42.75 L 45.78125 -42.75 C 50.40625 -42.75 53.910156 -43.789062 56.296875 -45.875 C 58.679688 -47.96875 59.875 -50.898438 59.875 -54.671875 Z M 59.875 -54.671875 "/></g></g></g><g fill="#004aad" fill-opacity="1"><g transform="translate(298.569749, 684.058292)"><g><path d="M 7.671875 0 L 7.671875 -78.84375 L 69.671875 -78.84375 L 69.671875 -66.09375 L 24.171875 -66.09375 L 24.171875 -46.28125 L 66.265625 -46.28125 L 66.265625 -33.515625 L 24.171875 -33.515625 L 24.171875 -12.765625 L 71.96875 -12.765625 L 71.96875 0 Z M 7.671875 0 "/></g></g></g><g fill="#004aad" fill-opacity="1"><g transform="translate(375.012337, 684.058292)"><g/></g></g><g fill="#004aad" fill-opacity="1"><g transform="translate(406.854097, 684.058292)"><g><path d="M 63.40625 0 L 56.40625 -20.140625 L 26.359375 -20.140625 L 19.359375 0 L 2.859375 0 L 31.625 -78.84375 L 51.09375 -78.84375 L 79.75 0 Z M 41.359375 -66.703125 L 41.015625 -65.46875 C 40.640625 -64.125 40.191406 -62.59375 39.671875 -60.875 C 39.148438 -59.164062 35.941406 -49.726562 30.046875 -32.5625 L 52.71875 -32.5625 L 44.9375 -55.234375 L 42.53125 -62.84375 Z M 41.359375 -66.703125 "/></g></g></g><g fill="#004aad" fill-opacity="1"><g transform="translate(489.620258, 684.058292)"><g><path d="M 84.328125 -39.78125 C 84.328125 -29.257812 81.742188 -20.5 76.578125 -13.5 C 71.410156 -6.507812 64.222656 -2.082031 55.015625 -0.21875 C 56.273438 3.46875 58.050781 6.128906 60.34375 7.765625 C 62.644531 9.410156 65.867188 10.234375 70.015625 10.234375 C 72.210938 10.234375 74.429688 10.050781 76.671875 9.6875 L 76.5625 20.984375 C 71.851562 22.023438 67.335938 22.546875 63.015625 22.546875 C 56.929688 22.546875 51.894531 20.847656 47.90625 17.453125 C 43.914062 14.066406 40.707031 8.4375 38.28125 0.5625 C 27.644531 -0.445312 19.390625 -4.503906 13.515625 -11.609375 C 7.640625 -18.710938 4.703125 -28.101562 4.703125 -39.78125 C 4.703125 -52.4375 8.207031 -62.304688 15.21875 -69.390625 C 22.238281 -76.484375 31.992188 -80.03125 44.484375 -80.03125 C 56.984375 -80.03125 66.75 -76.445312 73.78125 -69.28125 C 80.8125 -62.113281 84.328125 -52.28125 84.328125 -39.78125 Z M 67.484375 -39.78125 C 67.484375 -48.289062 65.46875 -54.960938 61.4375 -59.796875 C 57.414062 -64.628906 51.765625 -67.046875 44.484375 -67.046875 C 37.097656 -67.046875 31.390625 -64.644531 27.359375 -59.84375 C 23.335938 -55.050781 21.328125 -48.363281 21.328125 -39.78125 C 21.328125 -31.132812 23.378906 -24.3125 27.484375 -19.3125 C 31.585938 -14.3125 37.21875 -11.8125 44.375 -11.8125 C 51.757812 -11.8125 57.457031 -14.234375 61.46875 -19.078125 C 65.476562 -23.929688 67.484375 -30.832031 67.484375 -39.78125 Z M 67.484375 -39.78125 "/></g></g></g><g fill="#004aad" fill-opacity="1"><g transform="translate(578.765979, 684.058292)"><g><path d="M 40.453125 1.125 C 29.597656 1.125 21.289062 -1.523438 15.53125 -6.828125 C 9.769531 -12.128906 6.890625 -19.703125 6.890625 -29.546875 L 6.890625 -78.84375 L 23.390625 -78.84375 L 23.390625 -30.828125 C 23.390625 -24.597656 24.875 -19.867188 27.84375 -16.640625 C 30.8125 -13.421875 35.164062 -11.8125 40.90625 -11.8125 C 46.800781 -11.8125 51.332031 -13.5 54.5 -16.875 C 57.675781 -20.25 59.265625 -25.085938 59.265625 -31.390625 L 59.265625 -78.84375 L 75.765625 -78.84375 L 75.765625 -30.390625 C 75.765625 -20.390625 72.675781 -12.632812 66.5 -7.125 C 60.332031 -1.625 51.648438 1.125 40.453125 1.125 Z M 40.453125 1.125 "/></g></g></g><g fill="#004aad" fill-opacity="1"><g transform="translate(661.53214, 684.058292)"><g><path d="M 7.671875 0 L 7.671875 -78.84375 L 24.171875 -78.84375 L 24.171875 0 Z M 7.671875 0 "/></g></g></g><path fill="#004aad" d="M 688.296875 380.664062 L 682.984375 365.714844 C 680.085938 357.515625 670.914062 350.761719 662.703125 350.761719 L 643.867188 350.761719 C 629.863281 311.699219 612.960938 264.4375 607.648438 253.34375 C 599.921875 235.980469 575.292969 228.265625 561.773438 224.40625 C 561.773438 224.40625 539.074219 215.726562 463.257812 215.726562 C 387.441406 215.726562 365.226562 224.40625 365.226562 224.40625 C 349.289062 229.710938 327.074219 237.429688 318.382812 253.824219 C 314.035156 262.023438 296.652344 310.253906 282.644531 350.761719 L 264.296875 350.761719 C 256.085938 350.761719 246.910156 357.515625 244.011719 365.714844 L 238.699219 380.664062 C 235.804688 388.863281 240.148438 395.617188 248.359375 395.617188 L 267.191406 395.617188 C 264.777344 402.367188 263.328125 406.226562 263.328125 406.226562 C 261.882812 408.636719 260.914062 419.730469 260.914062 423.105469 L 260.914062 559.589844 C 260.914062 568.269531 268.160156 575.503906 276.851562 575.503906 L 334.800781 575.503906 C 343.492188 575.503906 350.738281 568.269531 350.738281 559.589844 L 350.738281 530.652344 L 576.261719 530.652344 L 576.261719 559.589844 C 576.261719 568.269531 583.503906 575.503906 592.195312 575.503906 L 650.628906 575.503906 C 659.324219 575.503906 666.566406 568.269531 666.566406 559.589844 L 666.566406 423.105469 C 666.566406 420.210938 665.601562 408.636719 664.152344 406.226562 C 664.152344 406.226562 662.703125 402.367188 660.289062 395.617188 L 678.640625 395.617188 C 686.367188 395.617188 690.710938 388.863281 688.296875 380.664062 Z M 350.738281 464.582031 L 331.421875 451.558594 C 295.683594 448.664062 291.339844 461.207031 283.613281 447.703125 L 283.613281 431.304688 C 283.613281 415.390625 292.789062 414.90625 302.929688 414.90625 C 312.585938 414.90625 331.902344 423.105469 344.941406 428.894531 C 358.949219 435.164062 369.089844 429.855469 374.402344 450.59375 C 373.917969 460.242188 368.605469 464.582031 350.738281 464.582031 Z M 316.933594 357.035156 C 329.007812 307.839844 349.289062 273.597656 352.1875 265.402344 C 354.117188 259.613281 349.289062 249.003906 463.742188 249.003906 C 578.191406 249.003906 571.914062 264.4375 572.398438 264.917969 C 577.710938 276.011719 598.957031 312.179688 610.066406 357.035156 C 610.066406 357.035156 567.085938 362.820312 469.054688 362.820312 C 371.019531 362.820312 316.933594 357.035156 316.933594 357.035156 Z M 553.082031 450.59375 C 575.777344 422.621094 568.535156 435.164062 582.539062 428.894531 C 595.09375 423.105469 614.894531 414.90625 624.550781 414.90625 C 634.695312 414.90625 643.867188 415.390625 643.867188 431.304688 L 643.867188 447.703125 C 636.625 460.722656 630.347656 449.148438 594.128906 452.523438 L 576.261719 464.097656 C 558.390625 464.582031 546.800781 457.828125 553.082031 450.59375 Z M 553.082031 450.59375 " fill-opacity="1" fill-rule="nonzero"/><g clip-path="url(#207b6b5302)"><path fill="#004aad" d="M 718.871094 126.949219 L 610.40625 50.191406 C 608.765625 49.011719 606.699219 48.882812 604.890625 49.804688 C 604.042969 50.246094 602.085938 51.574219 602.085938 54.398438 L 602.085938 96.417969 C 602.085938 99.019531 599.964844 101.140625 597.363281 101.140625 L 460.375 101.140625 C 457.773438 101.140625 455.652344 103.261719 455.652344 105.863281 L 455.652344 153.085938 C 455.652344 155.6875 457.773438 157.808594 460.375 157.808594 L 597.363281 157.808594 C 599.964844 157.808594 602.085938 159.929688 602.085938 162.53125 L 602.085938 204.550781 C 602.085938 207.375 604.042969 208.703125 604.890625 209.144531 C 606.699219 210.085938 608.765625 209.917969 610.425781 208.757812 L 718.871094 132.003906 C 720.050781 131.152344 720.179688 129.953125 720.179688 129.476562 C 720.179688 128.996094 720.050781 127.796875 718.871094 126.949219 " fill-opacity="1" fill-rule="nonzero"/></g><g clip-path="url(#1ef8795393)"><path fill="#004aad" d="M 213.992188 101.078125 L 523.617188 101.078125 L 523.617188 159.800781 L 213.992188 159.800781 Z M 213.992188 101.078125 " fill-opacity="1" fill-rule="nonzero"/></g><g clip-path="url(#2d896406de)"><path fill="#004aad" d="M 217.707031 447.65625 C 144.90625 447.65625 85.773438 388.527344 85.773438 315.726562 L 29.503906 315.726562 C 29.503906 419.683594 113.75 503.929688 217.707031 503.929688 Z M 217.707031 447.65625 " fill-opacity="1" fill-rule="nonzero"/></g><g clip-path="url(#34cc178dcd)"><path fill="#004aad" d="M 29.097656 332.402344 L 29.097656 279.019531 L 87.820312 279.019531 L 87.820312 332.402344 Z M 29.097656 332.402344 " fill-opacity="1" fill-rule="nonzero"/></g><g clip-path="url(#e57e4f417b)"><path fill="#004aad" d="M 85.773438 289.671875 C 85.773438 216.867188 144.90625 157.738281 217.707031 157.738281 L 217.707031 101.46875 C 113.75 101.46875 29.503906 185.714844 29.503906 289.671875 Z M 85.773438 289.671875 " fill-opacity="1" fill-rule="nonzero"/></g></svg>